<svg class="svg-icon" style="width: 1em; height: 1em;vertical-align: middle;fill: currentColor;overflow: hidden;" viewBox="0 0 1024 1024" version="1.1" xmlns="http://www.w3.org/2000/svg"><path d="M512 128C428.8 128 359.68 187.733333 344.746667 266.666667L717.653333 640 768 640 768 554.666667 682.666667 554.666667 682.666667 298.666667C682.666667 204.373333 606.293333 128 512 128M139.946667 170.666667 85.333333 224.853333 341.333333 480.853333 341.333333 554.666667 256 554.666667 256 640 384 640 384 896 469.333333 896 469.333333 640 500.48 640 554.666667 694.186667 554.666667 896 640 896 640 779.52 799.146667 938.666667 853.333333 884.053333 640 670.72 341.333333 372.053333 139.946667 170.666667Z"  /></svg>