<?xml version="1.0" encoding="UTF-8" standalone="no"?>
<svg
   xmlns:dc="http://purl.org/dc/elements/1.1/"
   xmlns:cc="http://creativecommons.org/ns#"
   xmlns:rdf="http://www.w3.org/1999/02/22-rdf-syntax-ns#"
   xmlns:svg="http://www.w3.org/2000/svg"
   xmlns="http://www.w3.org/2000/svg"
   viewBox="0 0 79.853333 97.41333"
   height="97.41333"
   width="79.853333"
   xml:space="preserve"
   id="svg2"
   version="1.1"><metadata
     id="metadata8"><rdf:RDF><cc:Work
         rdf:about=""><dc:format>image/svg+xml</dc:format><dc:type
           rdf:resource="http://purl.org/dc/dcmitype/StillImage" /></cc:Work></rdf:RDF></metadata><defs
     id="defs6" /><g
     transform="matrix(1.3333333,0,0,-1.3333333,0,97.413333)"
     id="g10"><g
       transform="scale(0.1)"
       id="g12"><path
         id="path14"
         style="fill:#1f4b7e;fill-opacity:1;fill-rule:nonzero;stroke:none"
         d="m 327.16,699.699 c -173.992,0 -290.9022,-124.797 -290.9022,-310.547 0,-141.172 94.0192,-265.011 221.5312,-311.1715 -0.699,4.6093 -1.18,9.289 -1.18,14.1015 0,20.078 6.371,38.66 17.11,53.961 -33.27,13.309 -64.27,33.52 -90.442,59.687 -49.578,49.571 -78.007,116.43 -78.007,183.422 0,146.731 87.097,241.539 221.89,241.539 87.039,0 169.34,-67.878 169.34,-139.671 0,-69.079 -19.359,-107.61 -65.602,-123.778 8.84,-14.332 14.02,-31.152 14.02,-49.191 0,-6.52 -0.668,-12.899 -1.938,-19.051 81.258,23.23 122.52,87.41 122.52,192.02 0,109.222 -113.59,208.679 -238.34,208.679" /><path
         id="path16"
         style="fill:#6f7277;fill-opacity:1;fill-rule:nonzero;stroke:none"
         d="m 350.762,386.781 c -37.949,0 -68.731,-30.769 -68.731,-68.73 0,-37.961 30.782,-68.731 68.731,-68.731 37.961,0 68.73,30.77 68.73,68.731 0,37.961 -30.769,68.73 -68.73,68.73" /><path
         id="path18"
         style="fill:#6f7277;fill-opacity:1;fill-rule:nonzero;stroke:none"
         d="m 350.762,160.809 c -37.949,0 -68.731,-30.77 -68.731,-68.7309 0,-37.9609 30.782,-68.7304 68.731,-68.7304 37.961,0 68.73,30.7695 68.73,68.7304 0,37.9609 -30.769,68.7309 -68.73,68.7309" /></g></g></svg>