<?xml version="1.0" encoding="UTF-8"?>
<svg width="266.67" height="266.67" version="1.1" viewBox="0 0 266.67 266.67" xmlns="http://www.w3.org/2000/svg" xmlns:cc="http://creativecommons.org/ns#" xmlns:dc="http://purl.org/dc/elements/1.1/" xmlns:rdf="http://www.w3.org/1999/02/22-rdf-syntax-ns#">
 <metadata>
  <rdf:RDF>
   <cc:Work rdf:about="">
    <dc:format>image/svg+xml</dc:format>
    <dc:type rdf:resource="http://purl.org/dc/dcmitype/StillImage"/>
    <dc:title/>
   </cc:Work>
  </rdf:RDF>
 </metadata>
 <path fill="#FFFFFF" d="m111.62 252.56c-44.464-8.0388-81.71-42.132-94.558-86.555-2.6583-9.1912-3.0816-13.618-3.0605-32 0.0278-24.185 1.4805-31.437 9.9139-49.492 16.512-35.35 45.117-58.609 83.744-68.093 12.138-2.9802 39.162-2.9802 51.3 0 49.612 12.181 85.206 49.968 93.087 98.821 2.0234 12.543 0.93722 38.369-2.079 49.431-3.517 12.898-14.253 33.879-22.863 44.677-27.303 34.245-72.185 51.04-115.48 43.212zm62.357-25.89c21.961-9.4138 41.99-29.797 52.155-53.078 6.9132-15.834 7.8593-14.921-15.468-14.921h-19.978l-3.3715 6.6534c-4.514 8.9079-16.036 20.186-25.205 24.672l-7.4686 3.654v39.543l6.6991-1.9894c3.6845-1.0942 9.3708-3.1347 12.636-4.5344zm-63.339-14.332-3e-3 -19.667-7.3451-3.838c-8.3924-4.3851-20.5-16.764-24.163-24.706l-2.4852-5.387-41-0.0688 0.86528 4.3333c0.4759 2.3833 2.5991 8.0399 4.7181 12.57 11.291 24.138 31.231 43.082 55.417 52.647 14.888 5.8879 14.001 6.8947 13.997-15.884zm42.088-39.335c8.0313-4.1129 15.809-12.333 19.712-20.835 4.4017-9.5866 4.0305-25.133-0.83666-35.044-7.0211-14.297-19.538-22.544-35.627-23.471-12.976-0.74772-22.711 2.7073-31.387 11.139-22.34 21.712-15.192 58.37 13.648 69.998 9.3199 3.7575 25.277 2.9305 34.49-1.7876zm-74.031-65.774c4.2259-8.7296 16.024-20.907 24.595-25.385l7.3451-3.838 3e-3 -21.145 3e-3 -21.145-3.6663 0.90718c-20.672 5.1146-43.25 21.01-56.362 39.681-6.3904 9.0996-13.503 24.332-15.269 32.701l-0.9145 4.3333h41.307zm153.28 4.9044c0-3.7428-7.2448-21.624-12.103-29.871-12.433-21.106-39.633-41.471-61.134-45.771l-4.0964-0.81929v41.354l7.5364 3.6872c9.3978 4.5979 21.444 16.665 25.694 25.739l3.2254 6.8863h20.439c11.293 0 20.439-0.53945 20.439-1.2056z" stroke-width="1.3333"/>
</svg>
