<svg height="512" viewBox="0 0 60 54" width="512" xmlns="http://www.w3.org/2000/svg"><g id="Page-1" fill="none" fill-rule="evenodd"><g id="031---Yacht-and-Helicopter" fill="rgb(0,0,0)" fill-rule="nonzero"><circle id="Oval" cx="38" cy="40" r="1"/><circle id="Oval" cx="43" cy="40" r="1"/><circle id="Oval" cx="48" cy="40" r="1"/><path id="Shape" d="m59 45c-1.7969608-.0433016-3.5800425.3247391-5.213 1.076-.368.152-.732.3-1.125.432 2.8721875-2.354254 5.2681386-5.2355728 7.059-8.489.3643696-.6198408.3697088-1.3871488.014-2.012-.3521208-.626258-1.0165544-1.0118975-1.735-1.007h-5.489c-4.192-5.913-9.291-6-9.511-6h-1v-2.184c1.3775467-.4870363 2.2038721-1.8956662 1.9567957-3.3357331-.2470764-1.4400668-1.4956868-2.492694-2.9567957-2.492694s-2.7097193 1.0526272-2.9567957 2.492694c-.2470764 1.4400669.579249 2.8486968 1.9567957 3.3357331v2.184h-2.184c.1184378-.320257.1806856-.6585603.184-1 0-1.6568542-1.3431458-3-3-3h-1.064c-.123486-1.2772992-.6434309-2.4839771-1.487-3.451.228-.075.456-.153.679-.248 1.0836477-.4575865 2.0613283-1.1336567 2.872-1.986.9720595-1.0140079 2.236011-1.6998134 3.616-1.962l11.618-2.19c1.5344404 1.0189715 3.5048535 1.1117748 5.1282727.2415334 1.6234193-.8702413 2.6369014-2.5625753 2.6377273-4.4045334v-9c0-1.1045695-.8954305-2-2-2h-2.341c-.7999122.00008834-1.5228346.47679238-1.838 1.212l-2.48 5.788h-23.341v-2h20c.5522847 0 1-.44771525 1-1s-.4477153-1-1-1h-20v-1c0-.55228475-.4477153-1-1-1s-1 .44771525-1 1v1h-20c-.55228475 0-1 .44771525-1 1s.44771525 1 1 1h20v2h-1c-5.5203344.00606237-9.9939376 4.4796656-10 10-.0157176 2.1468297 1.3624113 4.0559734 3.405 4.717-.7563563.940872-1.2223291 2.081654-1.341 3.283h-1.064c-1.6568542 0-3 1.3431458-3 3 .0033144.3414397.0655622.679743.184 1h-1.184c-1.65344336.0082058-2.99179417 1.3465566-3 3 0 1.6568542 1.34314575 3 3 3h7.953l-3.336 3h-2.657c-1.2638571.0014465-2.4951372.4010264-3.519 1.142l-8.063 5.868c-.127 0-.244-.01-.378-.01-.55228475 0-1 .4477153-1 1s.44771525 1 1 1c1.53499779-.0314995 3.05726172.2843712 4.453.924 1.63475899.7511648 3.41943926 1.1191824 5.218 1.076 1.7985734.0433237 3.5832852-.3247005 5.218-1.076 1.3935301-.6463304 2.9173617-.9625263 4.453-.924 1.5346794-.0386041 3.0575539.2776063 4.45.924 1.6336449.7513236 3.4173897 1.1193599 5.215 1.076 1.7979112.0431239 3.5819283-.324898 5.216-1.076 1.3928075-.6463726 2.916001-.9625781 4.451-.924 1.5346794-.0386041 3.0575539.2776063 4.45.924 1.63334.7511741 3.4167256 1.1192069 5.214 1.076 1.7969608.0433016 3.5800425-.3247391 5.213-1.076 1.3921189-.6463117 2.91465-.9625218 4.449-.924.5522847 0 1-.4477153 1-1s-.4477153-1-1-1zm-18-22c.5522847 0 1 .4477153 1 1s-.4477153 1-1 1-1-.4477153-1-1 .4477153-1 1-1zm8.987 12h-5.987v-3.859c2.3651379.5943264 4.4689968 1.9503964 5.987 3.859zm6.135-21.878c-1.1717712 1.1710205-3.0709166 1.1706148-4.2421874-.0009063-1.1712708-1.171521-1.1712708-3.0706664 0-4.24218744 1.1712708-1.17152102 3.0704162-1.17192674 4.2421874-.00090626 1.1686245 1.173323 1.1686245 3.070677 0 4.244zm-1.463-11.122h2.341v5.027c-1.1736686-.8890437-2.6804834-1.21339695-4.116-.886zm-21.659 7v4c0 1.1045695-.8954305 2-2 2h-2v-6zm-10 .069v3.931c0 1.1045695-.8954305 2-2 2h-4.737c.8235595-3.1674041 3.4907613-5.51550772 6.737-5.931zm-7 7.931h5c2.209139 0 4-1.790861 4-4v-4h2v6c0 1.1045695.8954305 2 2 2h2c2.209139 0 4-1.790861 4-4v-4h14.43c-.6189078 1.4292276-.5364604 3.065236.223 4.425l-10.409 1.963c-1.7903172.3389485-3.4300231 1.228725-4.69 2.545-.6209641.6538585-1.3698244 1.1729548-2.2 1.525-.839366.3568249-1.7419372.541148-2.654.542h-10.7c-.796138.0015971-1.560128-.3139606-2.1230837-.8769163s-.8785134-1.3269457-.8769163-2.1230837zm4.2 5h9.6c1.1658812.5802303 1.9623394 1.7072939 2.12 3h-13.832c.1603135-1.289379.9522197-2.4142457 2.112-3zm-6.2 6c0-.5522847.4477153-1 1-1h20c.5522847 0 1 .4477153 1 1s-.4477153 1-1 1h-20c-.5522847 0-1-.4477153-1-1zm7.943 7h4.057c.5522847 0 1-.4477153 1-1s-.4477153-1-1-1h-15c-.5522847 0-1-.4477153-1-1-.00087326-.2694422.1099083-.5272084.306-.712.1823963-.1865985.4330776-.2906276.694-.288l31-.0000486v4.0000486h-4.93c-1.588025.0038199-3.1104829.6337157-4.237 1.753-.7571913.7940585-1.8057939 1.2444916-2.903 1.247h-11.323zm17.731 10c-1.7979207-.0432299-3.5819615.3247969-5.216 1.076-1.3928075.6463726-2.916001.9625781-4.451.924-1.5346794.0386041-3.0575539-.2776063-4.45-.924-1.6336449-.7513236-3.4173897-1.1193599-5.215-1.076-1.7982534-.0433475-3.5826455.3246812-5.217 1.076-1.39388.6463438-2.9180388.9625365-4.454.924-1.53563828.0385263-3.05946988-.2776696-4.453-.924-.63413841-.2760187-1.2867144-.5075779-1.953-.693l6.354-4.625c.6813023-.4923693 1.5004049-.7575891 2.341-.758h16.97c1.588025-.0038199 3.1104829-.6337157 4.237-1.753.7571913-.7940585 1.8057939-1.2444916 2.903-1.247h20.93c-4.3 7.24-8.115 9.364-10.608 9.854-.8621458-.1550813-1.701836-.416057-2.5-.777-1.6344785-.7521161-3.4193044-1.1205058-5.218-1.077z"/><path id="Shape" d="m59 50c-1.7969608-.0433016-3.5800425.3247391-5.213 1.076-1.3921189.6463117-2.91465.9625218-4.449.924-1.53435.0385218-3.0568811-.2776883-4.449-.924-1.6336449-.7513236-3.4173897-1.1193599-5.215-1.076-1.7979207-.0432299-3.5819615.3247969-5.216 1.076-1.3928075.6463726-2.916001.9625781-4.451.924-1.5346794.0386041-3.0575539-.2776063-4.45-.924-1.6336449-.7513236-3.4173897-1.1193599-5.215-1.076-1.7982534-.0433475-3.5826455.3246812-5.217 1.076-1.39388.6463438-2.9180388.9625365-4.454.924-1.53563828.0385263-3.05946988-.2776696-4.453-.924-1.63475899-.7511648-3.41943926-1.1191824-5.218-1.076-.55228475 0-1 .4477153-1 1s.44771525 1 1 1c1.53563828-.0385263 3.05946988.2776696 4.453.924 1.63475899.7511648 3.41943926 1.1191824 5.218 1.076 1.7985734.0433237 3.5832852-.3247005 5.218-1.076 1.3935301-.6463304 2.9173617-.9625263 4.453-.924 1.5346794-.0386041 3.0575539.2776063 4.45.924 1.6336449.7513236 3.4173897 1.1193599 5.215 1.076 1.7979112.0431239 3.5819283-.324898 5.216-1.076 1.3928075-.6463726 2.916001-.9625781 4.451-.924 1.5346794-.0386041 3.0575539.2776063 4.45.924 1.63334.7511741 3.4167256 1.1192069 5.214 1.076 1.7969608.0433016 3.5800425-.3247391 5.213-1.076 1.3921189-.6463117 2.91465-.9625218 4.449-.924.5522847 0 1-.4477153 1-1s-.4477153-1-1-1z"/></g></g></svg>