<?xml version="1.0" encoding="UTF-8" standalone="no"?>
<!DOCTYPE svg PUBLIC "-//W3C//DTD SVG 1.1//EN" "http://www.w3.org/Graphics/SVG/1.1/DTD/svg11.dtd">
<svg version="1.1" xmlns="http://www.w3.org/2000/svg" xmlns:xlink="http://www.w3.org/1999/xlink" preserveAspectRatio="xMidYMid meet" viewBox="0 0 640 640" width="640" height="640"><defs><path d="M346.83 94.29L355.62 95.91L364.29 97.86L372.83 100.15L381.23 102.77L389.48 105.7L397.58 108.95L405.53 112.49L413.31 116.34L420.91 120.47L428.33 124.88L435.57 129.57L442.61 134.53L449.44 139.75L456.07 145.22L462.48 150.93L468.67 156.89L474.62 163.07L480.34 169.48L485.81 176.11L491.02 182.95L495.98 189.99L500.67 197.22L505.09 204.65L509.22 212.25L513.06 220.03L516.61 227.97L519.85 236.07L522.79 244.33L525.4 252.73L527.69 261.27L529.65 269.94L531.26 278.73L532.54 287.63L532.97 291.9L572.33 291.9L572.33 338.05L532.97 338.05L532.54 342.32L531.26 351.23L529.65 360.02L527.69 368.69L525.4 377.23L522.79 385.63L519.85 393.88L516.61 401.98L513.06 409.93L509.22 417.71L505.09 425.31L500.67 432.73L495.98 439.97L491.02 447.01L485.81 453.84L480.34 460.47L474.62 466.88L468.67 473.07L462.48 479.02L456.07 484.74L449.44 490.21L442.61 495.43L435.57 500.38L428.33 505.07L420.91 509.49L413.31 513.62L405.53 517.46L397.58 521.01L389.48 524.25L381.23 527.19L372.83 529.8L364.29 532.09L355.62 534.05L346.83 535.67L337.92 536.94L333.65 537.37L333.65 580.53L287.5 580.53L287.5 537.37L283.23 536.94L274.33 535.67L265.53 534.05L256.87 532.09L248.33 529.8L239.93 527.19L231.67 524.25L223.57 521.01L215.63 517.46L207.85 513.62L200.24 509.49L192.82 505.07L185.59 500.38L178.55 495.43L171.71 490.21L165.08 484.74L158.67 479.02L152.49 473.07L146.53 466.88L140.82 460.47L135.35 453.84L130.13 447.01L125.17 439.97L120.48 432.73L116.07 425.31L111.94 417.71L108.09 409.93L104.54 401.98L101.3 393.88L98.37 385.63L95.75 377.23L93.46 368.69L91.51 360.02L89.89 351.23L88.62 342.32L88.18 338.05L47.44 338.05L47.44 291.9L88.18 291.9L88.62 287.63L89.89 278.73L91.51 269.94L93.46 261.27L95.75 252.73L98.37 244.33L101.3 236.07L104.54 227.97L108.09 220.03L111.94 212.25L116.07 204.65L120.48 197.22L125.17 189.99L130.13 182.95L135.35 176.11L140.82 169.48L146.53 163.07L152.49 156.89L158.67 150.93L165.08 145.22L171.71 139.75L178.55 134.53L185.59 129.57L192.82 124.88L200.24 120.47L207.85 116.34L215.63 112.49L223.57 108.95L231.67 105.7L239.93 102.77L248.33 100.15L256.87 97.86L265.53 95.91L274.33 94.29L283.23 93.02L287.5 92.59L287.5 55.23L333.65 55.23L333.65 92.59L337.92 93.02L337.92 93.02L346.83 94.29ZM287.5 136.4L281.39 137.27L274.31 138.57L267.33 140.15L260.45 141.99L253.69 144.1L247.04 146.46L240.52 149.07L234.12 151.93L227.86 155.02L221.73 158.35L215.76 161.91L209.93 165.68L204.26 169.67L198.76 173.88L193.42 178.28L188.26 182.88L183.28 187.68L178.48 192.66L173.88 197.82L169.47 203.16L165.27 208.66L161.28 214.33L157.51 220.16L153.95 226.13L150.62 232.26L147.53 238.52L144.67 244.92L142.06 251.44L139.7 258.09L137.59 264.85L135.75 271.73L134.17 278.71L132.87 285.79L132 291.9L167.44 291.9L167.44 338.05L132 338.05L132.87 344.17L134.17 351.25L135.75 358.23L137.59 365.1L139.7 371.87L142.06 378.51L144.67 385.04L147.53 391.44L150.62 397.7L153.95 403.82L157.51 409.8L161.28 415.62L165.27 421.29L169.47 426.8L173.88 432.14L178.48 437.3L183.28 442.28L188.26 447.07L193.42 451.68L198.76 456.08L204.26 460.28L209.93 464.27L215.76 468.05L221.73 471.6L227.86 474.93L234.12 478.03L240.52 480.88L247.04 483.49L253.69 485.86L260.45 487.96L267.33 489.81L274.31 491.38L281.39 492.68L287.5 493.56L287.5 460.53L333.65 460.53L333.65 493.56L339.77 492.68L346.85 491.38L353.83 489.81L360.7 487.96L367.47 485.86L374.11 483.49L380.64 480.88L387.03 478.03L393.3 474.93L399.42 471.6L405.4 468.05L411.22 464.27L416.89 460.28L422.4 456.08L427.73 451.68L432.9 447.07L437.88 442.28L442.67 437.3L447.27 432.14L451.68 426.8L455.88 421.29L459.87 415.62L463.65 409.8L467.2 403.82L470.53 397.7L473.63 391.44L476.48 385.04L479.09 378.51L481.46 371.87L483.56 365.1L485.4 358.23L486.98 351.25L488.28 344.17L489.15 338.05L452.33 338.05L452.33 291.9L489.16 291.9L488.28 285.79L486.98 278.71L485.4 271.73L483.56 264.85L481.46 258.09L479.09 251.44L476.48 244.92L473.63 238.52L470.53 232.26L467.2 226.13L463.65 220.16L459.87 214.33L455.88 208.66L451.68 203.16L447.27 197.82L442.67 192.66L437.88 187.68L432.9 182.88L427.73 178.28L422.4 173.88L416.89 169.67L411.22 165.68L405.4 161.91L399.42 158.35L393.3 155.02L387.03 151.93L380.64 149.07L374.11 146.46L367.47 144.1L360.7 141.99L353.83 140.15L346.85 138.57L339.77 137.27L333.65 136.4L333.65 175.23L287.5 175.23L287.5 175.23L287.5 136.4Z" id="bnhB1mvHO"></path><mask id="maskjNjdocwK" x="27.44" y="35.23" width="564.89" height="565.3" maskUnits="userSpaceOnUse"><rect x="27.44" y="35.23" width="564.89" height="565.3" fill="red"></rect><use xlink:href="#bnhB1mvHO" opacity="1" fill="black"></use></mask><path d="M357.1 317.88C357.1 343.94 335.94 365.09 309.88 365.09C283.83 365.09 262.67 343.94 262.67 317.88C262.67 291.82 283.83 270.67 309.88 270.67C335.94 270.67 357.1 291.82 357.1 317.88Z" id="d3E03SCW8B"></path><mask id="maske2zRSRzBU" x="242.67" y="250.67" width="134.42" height="134.42" maskUnits="userSpaceOnUse"><rect x="242.67" y="250.67" width="134.42" height="134.42" fill="red"></rect><use xlink:href="#d3E03SCW8B" opacity="1" fill="black"></use></mask></defs><g><g><g><use xlink:href="#bnhB1mvHO" opacity="1" fill="red" fill-opacity="1"></use><g mask="url(#maskjNjdocwK)"><use xlink:href="#bnhB1mvHO" opacity="1" fill-opacity="0" stroke="#000000" stroke-width="20" stroke-opacity="1"></use></g></g><g><use xlink:href="#d3E03SCW8B" opacity="1" fill="red" fill-opacity="1"></use><g mask="url(#maske2zRSRzBU)"><use xlink:href="#d3E03SCW8B" opacity="1" fill-opacity="0" stroke="#000000" stroke-width="20" stroke-opacity="1"></use></g></g></g></g></svg>
